<?xml version="1.0" encoding="UTF-8"?>
<svg id="Layer_2" xmlns="http://www.w3.org/2000/svg" version="1.1" viewBox="0 0 261.8 76.9">
  <!-- Generator: Adobe Illustrator 29.0.1, SVG Export Plug-In . SVG Version: 2.1.0 Build 192)  -->
  <defs>
    <style>
      .st0 {
        fill: #fff;
      }
    </style>
  </defs>
  <g id="_图层_1">
    <g>
      <path class="st0" d="M-.4,75.8V0h56.4v15.4H15.7v17.7h35.5v15.5H15.7v27.2H-.4Z"/>
      <rect class="st0" x="67" width="16.8" height="75.8"/>
      <path class="st0" d="M128.3,11c-18.2,0-33,14.7-33,33s14.8,33,33,33,33-14.8,33-33-14.8-33-33-33ZM128.3,61.9c-9.9,0-18.2-8.1-18.2-18.2s8.1-18.2,18.2-18.2,18.2,8.1,18.2,18.2-8.1,18.2-18.2,18.2Z"/>
      <path class="st0" d="M245.7,11.7s-11.2,41.9-13,48.3c-1.5-6.4-11.6-48.3-11.6-48.3h-15.7s-10,41.9-11.6,48.3c-1.8-6.4-13-48.3-13-48.3h-16.1l19.1,64h18.5s10.8-43.1,10.9-43.8c.1.7,10.9,43.8,10.9,43.8h18.5l19.1-64h-16.1,0Z"/>
    </g>
  </g>
</svg>