<?xml version="1.0" encoding="UTF-8"?>
<svg id="Layer_2" data-name="Layer 2" xmlns="http://www.w3.org/2000/svg" viewBox="0 0 445.05 100">
  <defs>
    <style>
      .cls-1 {
        fill: #fff;
      }
    </style>
  </defs>
  <g id="_图层_1" data-name="图层 1">
    <g>
      <path class="cls-1" d="M23.87,46.44c10.59,3.57,17.82,10.46,15.76,15.46-2.15,5.22-13.4,6.14-24.69,1.98C4.05,59.86-2.15,52.81.68,48.17c2.72-4.45,12.93-5.2,23.19-1.73Z"/>
      <path class="cls-1" d="M31.16,21.48c3.39,6.81,1.75,13.61-3.94,14.75-5.76,1.16-12.86-4-15.63-11.07-2.59-6.61-.36-12.39,4.79-13.3,5.09-.9,11.61,3.25,14.79,9.62Z"/>
      <path class="cls-1" d="M59.47,12.68c-4.36,5.17-12.11,7.74-17,5.53-4.77-2.17-4.63-7.95,0-12.73C46.88.94,53.88-1.15,58.39.64c4.6,1.83,5.21,7.14,1.08,12.04Z"/>
      <path class="cls-1" d="M92.04,22.85c-9.84.36-19.09-2.48-20.57-6.21-1.43-3.59,4.92-6.67,14.12-6.98,9.16-.31,18.18,2.21,20.24,5.76,2.14,3.69-3.99,7.07-13.79,7.43Z"/>
      <path class="cls-1" d="M110.37,48.64c-10.18-6.37-15.35-13.68-12.14-16.59,3.13-2.82,13.31-.62,23.28,5.12,10.55,6.07,17.26,13.98,14.36,17.45-2.99,3.57-14.72.77-25.51-5.98Z"/>
      <path class="cls-1" d="M94.96,74.25c-1.64-10.36,2.65-17.48,9.52-16.64,6.92.85,14.66,9.54,17.46,20.19,3.05,11.63-.91,20.92-9.05,19.76-8.07-1.15-16.14-12.01-17.93-23.31Z"/>
      <path class="cls-1" d="M52.56,74c9.72-5.34,21.14-5.43,26.05-.2,5.13,5.46,1.59,14.93-8.53,21.2-10.6,6.57-23.57,6.69-28.27.24-4.49-6.15.59-15.65,10.75-21.24Z"/>
    </g>
    <g>
      <path class="cls-1" d="M182.88,87.32V11.57h56.38v15.37h-40.29v17.72h35.5v15.5h-35.5v27.15h-16.09Z"/>
      <rect class="cls-1" x="250.24" y="11.57" width="16.83" height="75.75"/>
      <path class="cls-1" d="M311.57,22.53c-18.2,0-32.95,14.75-32.95,32.95s14.75,32.95,32.95,32.95,32.95-14.75,32.95-32.95-14.75-32.95-32.95-32.95ZM311.57,73.45c-9.91,0-18.2-8.06-18.2-18.2s8.06-18.2,18.2-18.2,18.2,8.06,18.2,18.2-8.06,18.2-18.2,18.2Z"/>
      <path class="cls-1" d="M428.97,23.29s-11.2,41.91-12.96,48.33c-1.51-6.42-11.56-48.33-11.56-48.33h-15.72s-10.04,41.91-11.56,48.33c-1.76-6.42-12.96-48.33-12.96-48.33h-16.09l19.08,64.03h18.45s10.78-43.11,10.93-43.76c.14.65,10.93,43.76,10.93,43.76h18.45l19.08-64.03h-16.09Z"/>
    </g>
  </g>
</svg>